<?xml version="1.0" encoding="UTF-8"?>
<svg id="Livello_2" data-name="Livello 2" xmlns="http://www.w3.org/2000/svg" viewBox="0 0 355.01 284.44">
  <defs>
    <style>
      .cls-1 {
        fill: #1d1d1b;
      }
    </style>
  </defs>
  <g id="Livello_3" data-name="Livello 3">
    <g>
      <path id="V" class="cls-1" d="M354.84,1.59c-.51-1.29-1.96-1.92-3.25-1.42-1.11,.44-26.39,10.81-132.68,87.13,5.93-14.05,11.74-27.68,17.08-40.11,.55-1.27-.04-2.74-1.31-3.28-1.27-.55-2.74,.04-3.28,1.31-2.35,5.47-10.35,24.13-20.28,47.69-6.83,4.92-13.97,10.1-21.44,15.56-.01,.01-.02,.02-.03,.03-.03,.02-.06,.05-.09,.07-2.66,2.02-5.26,3.99-7.8,5.91,2.19-24.34,1.52-39.13-2-44.1-1.55-2.18-3.82-3.01-6.24-2.27-4.01,1.23-10.79,7.03-18.42,14.71-2.3,2.3-4.67,4.77-7.07,7.35-14.87,15.94-30.78,35.55-35.46,41.39-17.48,21.8-47.4,61.37-48.66,71.45-.31,2.48,.88,3.6,1.62,4.05,1.95,1.2,4.48,.14,7.03-1.46,.15-.06,.3-.13,.44-.23,2.84-1.93,3.41-2.42,5.28-4.04,3.49-3,12.05-10.38,51.15-40.53h0c2.08-1.61,4.24-3.28,6.5-5.01,10.95-8.43,24.04-18.44,39.69-30.35-.76,6.87-1.74,14.63-2.97,23.4-.23,1.67-.48,3.38-.73,5.12-.09,.59-.17,1.19-.26,1.78-3.73,25.46-8.11,49.08-11,62.9-2.25,6.61-3.54,11.21-3.54,13.05,0,1.62,.61,2.64,1.83,3.04,.26,.09,.54,.13,.8,.13,.81,0,1.58-.38,2.1-1.09,.72-.97,2.09-6.41,3.76-14.38,5.87-16.91,18.49-48.43,32.72-82.89,1.19-2.87,2.39-5.77,3.6-8.68,4.35-10.49,8.81-21.15,13.25-31.67C326.15,16.16,353.16,4.93,353.42,4.83c1.29-.51,1.92-1.96,1.42-3.24ZM138.03,147.87h0c-2.25,1.73-4.42,3.39-6.5,4.99h0c-43.65,33.59-52.86,41.54-56.51,44.69-1.51,1.3-2.06,1.76-3.74,2.93t-.02,.01s-.11,.05-.16,.09c-.68,.47-1.25,.83-1.72,1.1,3.15-8.05,20.06-33.16,46-65.62,10.76-13.47,21.01-25.6,29.96-35.55,2.5-2.79,4.91-5.41,7.19-7.84,10.76-11.44,18.85-18.67,22.46-19.78,.26-.08,.3-.09,.54,.19,1.3,1.49,4.44,8.94,.81,45.53-14.88,11.32-27.54,20.99-38.31,29.26Zm56.22-14.6c-1.2,2.9-2.4,5.82-3.6,8.72-7.05,17.14-13.92,34.1-19.58,48.64,1.97-11.19,3.9-23.05,5.45-33.55,.27-1.85,.54-3.67,.8-5.46,.33-2.34,.64-4.62,.95-6.86,1.16-8.55,2.11-16.38,2.84-23.5,3.7-2.81,7.54-5.73,11.52-8.75,.01-.01,.03-.02,.04-.03,5.06-3.69,9.96-7.26,14.72-10.7-4.22,10.04-8.69,20.72-13.14,31.49Z"/>
      <path id="A" class="cls-1" d="M306.75,63.46c-.62-1.24-2.12-1.74-3.35-1.12-.39,.19-30.69,15.48-101.47,65.48-2.51,1.77-5.07,3.59-7.68,5.45-5.12,3.65-10.45,7.48-15.98,11.49-1.85,1.33-3.72,2.69-5.62,4.08-13.35,9.72-27.84,20.46-43.5,32.28,2.07-7.69,4.34-16.14,6.78-25.33,.43-1.59,.86-3.21,1.29-4.85,.27-1.02,.54-2.05,.81-3.07,5.31-20.02,10.53-39.94,14.5-55.2,.93-3.56,1.79-6.86,2.57-9.85,2.79-10.7,4.53-17.45,4.57-17.62,.35-1.34-.46-2.7-1.8-3.05-1.33-.34-2.7,.46-3.04,1.8-2.14,8.29-4.43,17.11-6.8,26.22-.89,3.41-1.79,6.86-2.69,10.34-4.54,17.36-9.28,35.37-13.81,52.35-.7,2.67-1.41,5.32-2.1,7.94-2.38,8.87-4.66,17.37-6.8,25.25-.27,.2-.54,.41-.81,.62-9.22,7-17.69,13.43-25.46,19.36-5.82-2.61-12.89-2.56-21.09,.17-16.15,5.39-36.94,26.44-47.9,38.52C14.82,258.55,.5,276.95,.02,281.23c-.13,1.19,.36,2.24,1.31,2.81,.47,.29,.95,.4,1.41,.4,1.1,0,2.05-.65,2.43-.91,2.84-1.93,3.41-2.41,5.29-4.03,4.34-3.75,16.59-14.32,86.33-67.51,8.02,5.53,10.04,17.55,10.92,22.78,.11,.63,.19,1.15,.27,1.55,.24,1.23,1.26,2.11,2.47,2.15,2.25,.04,2.79-1.39,5.17-9.11,1.38-4.46,3.27-11.01,5.64-19.47,1.68-5.98,3.6-12.96,5.75-20.89,16.08-12.18,30.95-23.24,44.65-33.26,1.91-1.39,3.8-2.77,5.66-4.12,4.58-3.33,9.02-6.54,13.33-9.63,2.61-1.87,5.17-3.7,7.68-5.49,74.99-53.37,106.89-69.49,107.29-69.69,1.24-.61,1.74-2.11,1.13-3.35ZM10.88,272.58c13.2-17.95,45.45-54.79,65.97-61.63,3.66-1.22,7.02-1.83,10.06-1.83,1.66,0,3.22,.18,4.68,.54-54.93,41.93-73.38,56.79-80.71,62.92Zm100.3-45.73c-1.54-5.9-4.43-13.28-10.27-18.01,6.1-4.64,12.61-9.59,19.57-14.88-3.88,14.19-7.14,25.75-9.3,32.89Z"/>
    </g>
  </g>
</svg>